<svg width="20" height="20" viewBox="0 0 20 20" fill="none" xmlns="http://www.w3.org/2000/svg">
<path d="M5.57481 4.5C6.12468 4.5 6.67513 5.04974 6.67539 5.59961V14.4004C6.67513 14.9503 6.12468 15.5 5.57481 15.5H2.275V13.2998H4.4752V6.7002H2.275V4.5H5.57481ZM12.7252 6.7002H10.525V13.2998H12.7252V15.5H9.42539C8.87552 15.5 8.32507 14.9503 8.32481 14.4004V5.59961C8.32506 5.04974 8.87552 4.5 9.42539 4.5H12.7252V6.7002ZM16.3922 9.08301H18.2252V10.917H16.3922V12.75H14.5582V10.917H12.7252V9.08301H14.5582V7.25H16.3922V9.08301Z" fill="#F5F5F5"/>
</svg>
